<?xml version="1.0" encoding="UTF-8" ?>
<!DOCTYPE svg PUBLIC "-//W3C//DTD SVG 1.1//EN" "http://www.w3.org/Graphics/SVG/1.1/DTD/svg11.dtd">
<svg width="40pt" height="55pt" viewBox="0 0 40 55" version="1.1" xmlns="http://www.w3.org/2000/svg">
<g id="#1d1d1bff">
<path fill="#1d1d1b" opacity="1.00" d=" M 10.60 0.00 L 11.53 0.00 C 11.67 5.22 11.82 10.45 12.00 15.67 C 9.99 17.36 8.26 19.94 9.64 22.61 C 12.44 28.60 15.43 34.56 18.89 40.21 C 20.16 42.66 23.04 42.55 25.25 41.57 C 29.37 44.91 33.55 48.17 37.63 51.55 C 34.83 52.84 32.02 54.14 29.05 55.00 L 25.14 55.00 C 16.92 52.86 11.69 45.56 7.09 38.97 C 1.44 31.08 0.41 21.07 0.00 11.66 L 0.00 9.47 C 0.47 4.00 5.56 0.68 10.60 0.00 Z" />
<path fill="#1d1d1b" opacity="1.00" d=" M 13.09 0.00 L 14.23 0.00 C 15.29 0.60 16.34 1.22 17.37 1.88 C 17.23 5.63 17.71 9.40 17.37 13.14 C 16.86 14.86 14.97 15.37 13.51 15.99 C 13.30 10.66 13.20 5.33 13.09 0.00 Z" />
<path fill="#1d1d1b" opacity="1.00" d=" M 26.07 40.20 C 27.40 39.52 28.73 38.82 30.06 38.14 C 33.58 40.43 36.84 43.08 40.00 45.85 L 40.00 46.98 C 39.75 47.90 39.25 49.76 39.00 50.69 C 34.72 47.15 30.40 43.68 26.07 40.20 Z" />
</g>
</svg>
