<?xml version="1.0" encoding="UTF-8" ?>
<!DOCTYPE svg PUBLIC "-//W3C//DTD SVG 1.1//EN" "http://www.w3.org/Graphics/SVG/1.1/DTD/svg11.dtd">
<svg width="33pt" height="45pt" viewBox="0 0 33 45" version="1.1" xmlns="http://www.w3.org/2000/svg">
<g id="#fdfdfdff">
<path fill="#fdfdfd" opacity="1.00" d=" M 8.98 0.00 L 9.40 0.00 C 9.75 4.30 9.48 8.64 10.01 12.92 C 8.31 14.02 6.93 15.88 7.69 18.00 C 10.24 23.22 12.74 28.52 15.93 33.38 C 17.01 35.16 19.23 34.62 20.85 34.04 C 24.24 36.77 27.61 39.54 31.10 42.15 C 27.38 44.03 23.13 45.93 18.92 44.47 C 12.77 41.82 8.78 36.16 5.14 30.81 C 0.98 24.44 0.31 16.61 0.00 9.21 L 0.00 8.88 C -0.36 3.85 4.36 0.32 8.98 0.00 Z" />
<path fill="#fdfdfd" opacity="1.00" d=" M 10.80 0.00 L 11.66 0.00 C 12.32 0.45 13.66 1.34 14.33 1.78 C 14.32 4.84 14.37 7.90 14.43 10.95 C 13.98 11.38 13.09 12.24 12.64 12.66 C 12.20 12.67 11.33 12.67 10.89 12.67 C 10.78 8.45 10.85 4.22 10.80 0.00 Z" />
<path fill="#fdfdfd" opacity="1.00" d=" M 21.62 32.80 C 22.67 32.15 23.79 31.65 24.98 31.31 C 27.85 33.11 30.42 35.34 33.00 37.54 L 33.00 38.51 C 32.79 39.26 32.37 40.75 32.16 41.50 C 28.77 38.45 24.95 35.83 21.62 32.80 Z" />
</g>
</svg>
